# xmcd
#
# Track frame offsets: 
#        150
#        17031
#        33879
#        48841
#        60761
#        76270
#        88787
#        104283
#        122284
#
# Disc length: 1947 seconds
#
# Revision: 0
# Processed by: cddbd v1.5.2PL0 Copyright (c) Steve Scherf et al.
# Submitted via: ExactAudioCopy v0.99pb4
#
DISCID=58079909
DTITLE=Foster and Lloyd - Foster and Lloyd
DYEAR=1987
DGENRE=Country
TTITLE0=Turn Around (extended version)
TTITLE1=Crazy Over You (extended version)
TTITLE2=What Do You Want From Me This Time?
TTITLE3=Token of Love
TTITLE4=Sure Thing
TTITLE5=Hard To Say No
TTITLE6=The Part I Know By Heart
TTITLE7=Texas In 1880
TTITLE8=You Can Come Cryin' To Me (edited version)
EXTD=
EXTT0=
EXTT1=
EXTT2=
EXTT3=
EXTT4=
EXTT5=
EXTT6=
EXTT7=
EXTT8=
PLAYORDER=
